<?xml version="1.0" encoding="UTF-8"?>
<svg id="Layer_1" data-name="Layer 1" xmlns="http://www.w3.org/2000/svg" viewBox="0 0 1940.84 2466.6">
  <path d="m420.7,1378.21c12.63-3.48,22.68-11.78,33.21-19.29,22.77-16.24,45.14-33.11,68.54-48.39,58.9-38.45,121.98-68.17,189.79-87.29,39.51-11.14,79.86-17.72,120.81-20.66,11.45-.82,22.9-1.51,34.35-2.37,2.38-.18,4.73-.88,7.74-1.46.45-3.89,1.15-7.24,1.17-10.6.09-15-.05-30-.03-45,0-4.93-.38-9.98,2.56-15.04,5.25-.63,9.5,2.28,13.97,3.97,18.32,6.92,37.1,11.67,56.68,13.28,33.1,2.72,64.51-4.46,95.24-15.86,2.73-1.01,5.44-2.1,7.88-3.05,4.49,3.41,3.36,7.71,3.37,11.43.12,27.5.01,55,.04,82.5.02,20.76-1.77,17.51,16.86,26.49,25.64,12.35,51.03,25.22,76.42,38.07,25.4,12.86,50.42,26.49,76.05,38.87,44.26,21.38,90.46,37.42,138.94,45.91,21.57,3.78,43.4,6.19,65.37,7.7,35.19,2.42,69.73-2.07,104.36-6.63,7.36-.97,12.46-4.37,16.87-10.72,11.38-16.42,23.99-31.97,35.55-48.27,20.38-28.73,35.59-60.14,47.05-93.41.95-2.75,1.48-5.64,2.49-9.58-4.72-.39-8.5-1.02-12.27-.96-31.97.52-63.93,1.19-95.89,1.78-6.49.12-13,.4-19.48.12-8.29-.36-12.05-7.83-7.3-14.8,2.78-4.09,6.41-7.64,9.89-11.2,9.42-9.66,18.93-19.22,28.47-28.77,69.51-69.52,112.07-153.52,133.46-248.89.77-3.41,1.62-6.81,2.52-10.19.38-1.41.98-2.76,1.44-4.02,3.23-1.18,4.73,1.04,6.28,2.9,62.43,74.44,111.04,156.21,133.99,251.74,12.71,52.92,17.45,106.45,13.55,160.72-.68,9.46-1.97,18.89-3.27,28.3-.47,3.38-1.8,6.64-2.96,10.74-2.78-1.21-5.36-1.69-7.06-3.18-5.25-4.6-10.38-9.39-15.17-14.47-20.92-22.18-41.68-44.5-62.54-66.73-3.72-3.97-7.63-7.77-12.31-12.51-1.63,2.73-3.21,4.51-3.82,6.57-1.4,4.79-2.36,9.71-3.46,14.58-11.85,52.18-26.51,103.52-46.29,153.28-22.84,57.47-54.43,110.08-89.46,160.77-6.53,9.45-12.58,19.22-19.04,28.71-2.8,4.12-5.79,8.18-9.18,11.81-15.71,16.78-30.57,34.54-47.62,49.83-41.64,37.36-84.1,73.81-132.18,103.03-81.95,49.8-169.72,84.26-264.11,101.6-31.44,5.78-63.08,9.59-94.96,12.12-32.48,2.58-64.77,2.04-97.25,0-61.06-3.85-120.83-14.29-179.41-31.82-62.1-18.58-120.22-46.01-175.52-79.54-87.38-52.98-161.32-120.93-222.35-202.76-50.29-67.43-88.86-141.02-112.99-221.91-8.44-28.3-14.54-57.12-19.82-86.14-1.06-5.8-2.34-11.55-3.47-17.06-6.05-.49-7.73,3.78-10.28,6.57-21.26,23.21-42.35,46.57-63.69,69.71-5.41,5.86-11.46,11.14-17.34,16.55-1.35,1.24-3.2,1.94-5.81,3.47-2.41-5.9-2.73-11.32-2.92-16.57-.85-24.47-2.32-48.97-1.91-73.44,1.64-99.06,32.51-189.38,83.18-273.57,14.71-24.44,30.78-47.93,49.08-69.86,5.76-6.9,11.09-14.17,16.73-21.17,1.47-1.83,3.38-3.3,6.22-6.02,1.64,6.21,3.02,10.91,4.12,15.66,8.36,36.12,19.72,71.24,34.49,105.25,28.08,64.7,68.19,120.75,120.31,168.23,4.06,3.7,8.21,7.34,11.98,11.32,2.72,2.87,5.23,6.06,7.2,9.48,3.15,5.47.87,9.9-5.54,10.56-6.44.65-12.96.87-19.44.76-32.46-.53-64.93-1.24-97.39-1.86-4.92-.09-9.91-.99-14.69.89,6.71,46.08,73.32,140.32,119.99,169.78Z"/>
  <path d="m1058.34,598.77c-1.82,17.79-.84,33.75-1.09,49.66-.24,15.49-.06,30.99-.3,46.48-.24,15.92-.16,31.87-2,48.85-3.59-.78-6.52-.88-8.95-2.02-27.71-12.97-56.91-17.99-87.34-17.19-22.22.58-43.51,5.38-64.26,13.06-4.57,1.69-9.21,3.2-14.5,5.03-1.95-6.26-1.25-11.7-1.25-17.01,0-35.99.18-71.97.17-107.96,0-5.4.99-10.99-2.18-16.95-2.86-.45-6.19-1.35-9.55-1.44-10.48-.29-20.97-.36-31.46-.37-70.41-.08-140.83-.12-211.24-.17-3.5,0-7,.27-10.48.07-6.57-.38-11.06,2.28-15.13,7.58-13.28,17.27-30.93,28.25-52.12,32.94-44.93,9.94-91-11.85-110-48.27-21.25-40.73-13.75-90.49,19.71-120.95,26.62-24.23,57.6-33.65,92.8-23.57,24.89,7.13,44.89,21.4,57.36,44.89.69,1.31,1.64,2.48,2.84,4.26,4.84,2.02,10.4,1.28,15.77,1.32,28.96.23,57.93.3,86.89.33,49.44.06,98.88.05,148.32.04,5.95,0,11.89-.17,17.99-.27,1.04-2.53,2.4-4.3,2.41-6.08.13-31.46.09-62.93.09-94.87-3.74-2.18-7.11-4.18-10.51-6.13-52.45-30.06-88.15-73.65-101.67-132.84-14.06-61.54-2.66-119.18,33.88-171.16,34.46-49.03,82.45-76.08,141.1-84.18,106.99-14.77,208.19,60.87,227.01,168.02,11.67,66.44-4.16,125.93-49.96,176.52-16.55,18.28-34.93,34.25-56.77,45.97-1.74.94-3.33,2.16-5.78,3.77-1.67,10.42-.76,21.39-1.02,32.28-.27,11.49-.23,22.99-.25,34.49-.02,10.88-.77,21.81,1.07,33.3,3.54.49,6.39.94,9.26,1.26,1.48.16,2.99.12,4.49.11,81.4-.24,162.8-.48,244.2-.78,3.44-.01,6.87-.56,9.25-.77,5.58-7.7,9.86-15.19,15.61-21.28,46.04-48.73,111.74-39.87,147.57,3.25,55.65,66.98,10.58,148.33-53.9,161.08-35.72,7.07-67.19-2.9-93.6-28.18-2.16-2.07-4.15-4.34-6.01-6.68-3.05-3.84-6.96-5.37-11.77-5.29-4.99.08-9.99-.15-14.98-.16-77.9-.21-155.81-.42-233.71-.59-4.9-.01-9.8.36-16.01.6Zm-91.19-278.35c60.01.97,111.02-51.8,111.94-111.94.91-60.17-50.83-111.33-112.43-110.37-65.51,1.03-109.46,54.82-109.2,110.37.26,55.28,44.39,111.66,109.7,111.93Z"/>
  <path d="m845.72,882.92c1.3-4.5,2.74-8.69,3.72-12.99,4.4-19.29,15.03-33.52,33.43-41.41,6.22-2.67,10.98-6.7,14.19-12.7,1.16-2.18,2.79-4.14,4.41-6.03,14.03-16.37,31.77-22.07,52.46-16.84,6.75,1.71,12.39,1.11,18.75-1.07,19.32-6.62,37.45-3.97,53.51,9.03,11.62,9.41,23.12,19,34.31,28.91,10.7,9.48,17.98,21.32,21.41,35.3.28,1.14-.97,3.79-1.36,3.76-1.73-.13-4.21-.48-4.95-1.67-2.08-3.36-3.39-7.2-5.11-10.8-4.15-8.69-9.64-16.57-17.39-22.2-5.11-3.71-12.25-4.82-16.94-8.87-4.69-4.05-6.8-10.96-11.23-15.45-6.46-6.56-15.07-9.63-24.2-10.75-3.45-.43-6.98-.44-10.46-.37-14.39.3-20.64,5.56-23.52,19.77-.58,2.84-.15,6.11-4.38,7.27-3.55-2.85-2.09-7.16-2.58-10.85-1.39-10.38-5.96-14.81-16.44-15.93-7.27-.78-13.87,1.08-20,4.82-11.43,6.97-19.94,16.38-24,29.89-11.35,3.39-23.55,5.31-30.53,16.76-5.91,9.67-12.87,18.82-13.79,31.73,3.69.54,6.48,1.31,9.27,1.3,41.43-.06,82.88.43,124.28-.64,22.48-.58,44.87.1,67.3.62,8.44.2,16.9-.94,25.36-1,14.96-.11,30.08-.16,44.4,4.63,21.05,7.04,34.48,21.41,38.19,43.81.89,5.39,1.31,10.92,1.35,16.39.2,25.98-.29,51.98.4,77.94.64,24.28-17.76,48.93-45.2,53.74-7.82,1.37-15.86,1.95-23.81,2.01-39.93.3-79.87.2-119.81.46-38.94.25-77.87.84-116.8,1.13-11.47.09-22.99.16-34.42-.64-31.52-2.21-53.56-25.36-54.31-56.86-.64-26.97-.77-53.96-1.44-80.93-.32-12.78.82-24.84,9.45-35.24,9.27-11.18,20.73-18.74,34.86-21.8,6.79-1.47,13.82-1.77,20.74-2.65,3.39-.43,6.76-.99,10.88-1.59Zm25.43,158.31c34.85.31,62.82-27.52,62.71-62.4-.11-34.06-27.68-61.72-61.79-62.01-33.98-.28-62.04,27.01-62.78,61.08-.75,34.63,26.98,63.02,61.86,63.33Zm193.59,0c34.2.07,61.81-27.16,62.24-61.39.43-34.62-27.61-63-62.27-63.02-34.76-.02-62.37,28.02-62.09,63.06.27,34.29,27.6,61.28,62.11,61.35Z"/>
  <path d="m415.57,2061.76c3.4,4.97,2.61,10.1,2.58,15.01-.29,48.95-.66,97.89-1.08,146.84-.11,12.4-.48,24.8-.74,37.49-9.16,2.82-17.27,2.77-26.44-.44-2.11-42.75-.2-85.59-2.56-130.25-2.78,2.28-4.56,3.08-5.29,4.45-3.29,6.15-6.45,12.39-9.36,18.74-14.79,32.2-29.48,64.45-44.24,96.67-1.44,3.15-3.12,6.2-4.91,9.74-7.91,1.92-15.65.82-24.07-.35-10.85-21.4-19.75-43.59-29.08-65.58-9.04-21.3-18.99-42.11-31.31-61.99-3.22,7.03-2.28,13.91-2.55,20.64-.28,6.98-.14,13.98-.18,20.98-.04,7.49-.06,14.98-.1,22.48-.04,6.99-.07,13.99-.14,20.98s-.15,13.99-.27,20.98c-.12,6.92-.3,13.83-.47,21.28-9.48,3.45-18.02,2.11-27.05.61-.44-2.54-1.05-4.44-1.05-6.33-.02-62.43,0-124.87.09-187.3,0-1.38.81-2.76,1.56-5.14,10.14-1.42,20.42-.84,31.52-.41,2.8,5.35,5.81,10.47,8.24,15.86,18.08,40.03,36,80.12,54.07,120.15,2.37,5.26,3.92,11.14,8.76,15.21,5.3-3.09,6.68-8.07,8.7-12.4,4.42-9.5,8.31-19.25,12.63-28.8,13.99-30.92,28.04-61.83,42.19-92.68,2.67-5.83,5.94-11.38,9.12-17.42,9.19,0,17.64-.06,26.09.05,1.91.03,3.81.68,5.34.97Z"/>
  <path d="m813.42,2166.55c17.7,20.43,18.65,22.94,18.72,49.66.04,13.49-.04,26.97-.12,40.46,0,.96-.42,1.92-.78,3.43-8.41,4.2-17.03,2.04-26.3.15-.49-3.6-1.23-6.97-1.34-10.35-.34-10.48-.37-20.98-.67-31.46-.11-3.98-.25-8.02-.99-11.92-2.43-12.77-11.43-22.27-24.25-22.79-23.38-.96-46.82-.54-70.24-.65-.4,0-.81.49-2.12,1.34-.38,2.63-1.22,5.96-1.29,9.31-.37,16.98-.5,33.96-.81,50.94-.09,4.9-.53,9.8-.78,14.28q-11.83,3.57-25.91,1.42c-3.43-4.87-1.93-10.55-1.94-15.87-.07-49.45.04-98.9.08-148.35,0-8.49-.17-16.98-.14-25.47.01-2.9.43-5.8.72-9.53,3.35-.47,6.18-1.21,9.01-1.2,29.44.08,58.89.31,88.33.43,8.61.04,16.74,2.03,24.76,5.06,36.92,13.92,50.76,61.13,23.57,92.83-2.26,2.64-4.67,5.15-7.52,8.28Zm-107.56-75.94c-2.67,17.66-2.24,50.94.64,62.83,1.64.43,3.51,1.3,5.4,1.35,18.91.42,37.82.79,56.74.96,3.44.03,6.95-.62,10.32-1.44,17.14-4.2,26.36-17.46,24.88-35.53-1.37-16.68-12.93-27.79-30.42-29.17-2.48-.19-4.98-.12-7.47-.11-15.93.02-31.87,0-47.8.14-3.87.03-7.75.6-12.28.97Z"/>
  <path d="m1719.95,2164.85c3.56,4.63,6.51,7.99,8.92,11.7,5.22,8.04,9.29,16.58,9.39,26.47.19,18.49.37,36.98.49,55.48,0,.93-.58,1.87-1.14,3.56-8.9,2.5-17.98,2.3-27.77-.93-.44-3.56-1.16-6.91-1.23-10.27-.23-11.99-.12-24-.39-35.99-.09-3.96-.28-8.11-1.5-11.81-3.17-9.67-9.53-16.25-19.98-18.05-1.48-.25-2.96-.57-4.45-.61-23.43-.56-46.86-1.08-71.14-1.63-.85,4.14-2.05,7.37-2.08,10.62-.13,17.5.03,34.99.09,52.49.02,4.92,0,9.85,0,14.76-8.61,3.87-16.51,2.46-23.93,2.13-4.4-3.06-3.68-7.32-3.72-11.2-.32-33.49-.66-66.99-.77-100.48-.08-23.49.14-46.99.35-70.49.05-5.94.57-11.88.91-18.42,3.45-.73,6.23-1.82,9.01-1.84,29.47-.2,58.94-.26,88.41-.3,16.66-.03,31.28,5.78,44.24,15.96,18.09,14.2,23.29,33.09,18.61,54.87-2.9,13.53-9.79,25.03-22.33,33.98Zm-110.14-12.11c3.65,1.08,6.43,2.56,9.22,2.61,18.95.31,37.9.47,56.85.32,4.42-.03,8.96-1,13.21-2.3,16.07-4.91,24.91-18.48,23.52-35.52-1.34-16.29-11.75-26.77-28.96-28.96-3.95-.5-7.96-.78-11.93-.75-17.46.13-34.91.33-52.37.7-2.79.06-5.55,1.12-9.13,1.89-1.22,21.07-.72,41.37-.42,62.01Z"/>
  <path d="m1542.77,2161.59c-1.55,10.69-1.96,20.32-4.43,29.39-11.1,40.84-39.27,63.67-79.45,72.53-26.66,5.88-51.5-.46-74.66-14.12-12.26-7.24-21.94-17.18-29.38-29.33-15.38-25.09-18.94-52.2-13.8-80.78,8.91-49.61,41.49-78.68,92.2-82.84,52.15-4.28,93.51,30.94,104.89,73.78,2.79,10.51,3.26,21.63,4.63,31.37Zm-30.68.31c-.02-16.87-3.6-32.78-13.51-46.67-17.24-24.16-41.09-34.52-70.14-30.12-29.9,4.53-49.43,22.25-57.55,51.65-4.48,16.2-4.05,32.58.47,48.76,11.62,41.64,54.61,62.95,94.57,46.95,28.34-11.35,46.36-38.84,46.16-70.56Z"/>
  <path d="m0,2197.95c3.87-.69,5.8-1.37,7.71-1.3,6.44.21,12.87.69,19.69,1.09,1.17,3.94,2.01,7.25,3.13,10.47,5.18,14.81,15.62,24.26,30.49,28.44,15.69,4.41,31.63,4.47,47.37.1,4.75-1.32,9.62-3.24,13.57-6.09,4.33-3.13,8.51-7.14,11.23-11.68,6.19-10.33,2.92-22.54-7.65-28.29-6.5-3.53-13.7-6.07-20.87-7.99-13-3.49-26.31-5.85-39.31-9.33-8.64-2.31-17.36-4.99-25.39-8.86-18.66-8.99-30.86-23.57-33.92-44.52-2.96-20.21,4.63-36.21,20.95-48.12,9.02-6.58,19.28-10.3,30.19-12.52,20.03-4.07,39.71-2.93,59.07,3.52,11.08,3.69,20.89,9.58,28.96,18.06,10.42,10.96,15.31,24.09,15.14,39.74-9.84,2.51-19.02,1.68-28.83-.12-.96-3.02-2-5.73-2.69-8.53-2.59-10.53-9.18-17.73-18.94-21.73-19.43-7.96-38.95-7.23-58.3.57-1.84.74-3.59,1.79-5.23,2.91-14.47,9.87-15.4,28.27-1.91,39.46,6.65,5.51,14.5,8.95,22.78,10.93,14.06,3.38,28.35,5.86,42.37,9.36,9.64,2.41,19.46,4.95,28.42,9.1,32.74,15.18,39.71,57.22,14.14,82.8-9.07,9.07-20.13,14.93-32.38,17.96-23.17,5.74-46.55,5.95-69.52-.96-7.53-2.27-14.81-6.03-21.54-10.19-19.6-12.11-26.92-30.98-28.75-54.26Z"/>
  <path d="m527.83,2061.04h31.31c5.69,3.87,7.29,10.44,9.71,16.32,7.78,18.92,15.12,38.02,22.76,57.01,13.97,34.72,28.07,69.4,42.02,104.13,2.75,6.85,6.13,13.56,6.84,21.08-11.9,2.86-14.82,2.89-29.29.16-6.31-14.92-12.86-30.45-19.23-45.5-2.36-.77-3.75-1.62-5.14-1.62-25.44.02-50.89.32-76.33.13-8.14-.06-12.96,3.05-15.75,10.74-4.41,12.16-9.44,24.09-14.35,36.48-10.12,3.15-19.9,1.8-29.24,1.38-3.2-4.3-.52-7.29.7-10.3,14.6-36.09,29.41-72.08,43.88-108.22,9.46-23.62,18.44-47.44,27.66-71.16,1.24-3.2,2.66-6.34,4.46-10.61Zm18.91,38.07c-2.82,4.65-4.87,7.3-6.17,10.28-22.7,52.14-26.61,62.69-27.5,74.16,7.13,2.22,14.6,1.15,21.93,1.3,7.47.16,14.96.18,22.42-.14,7.22-.32,14.69,1.57,22.92-1.58-11.17-27.93-21.99-54.98-33.61-84.02Z"/>
  <path d="m1152.14,2061.05c2.29-.42,3.74-.9,5.19-.91,29.43-.05,58.87-.07,88.3-.02,10.65.02,20.82,2.43,30.25,7.38,23.29,12.21,33.37,32.34,32.7,57.83-.86,32.58-21.46,55.18-53.57,60.59-14.38,2.42-28.83,2.03-43.29,2.17-9.88.09-19.82-.65-30.55.74-.56,4.32-1.46,8.12-1.48,11.93-.07,14.48.15,28.96.24,43.45.03,4.93,0,9.85,0,14.36-10.43,4.19-12.34,4.28-26.94,1.61-3.28-4.85-2-10.52-2.04-15.85-.25-31.46-.2-62.92-.36-94.38-.12-23.97-.47-47.94-.57-71.91-.02-5.38-1-10.95,2.11-16.98Zm29.07,97.17c1.3.41,2.7,1.24,4.1,1.24,18.92-.02,37.85.04,56.77-.39,4.89-.11,9.9-1.37,14.58-2.94,14.82-5,24-18.85,23.4-34.58-.6-15.83-10.72-28.41-26.51-31.98-6.26-1.42-12.82-1.97-19.25-2.07-15.44-.26-30.88-.09-46.32.09-2.33.03-4.65,1.06-6.7,1.56-2.64,13.95-2.63,56.9-.06,69.08Z"/>
  <path d="m1940.84,2061.33v24.85c-4.24.66-8,1.7-11.78,1.74-12.96.16-25.92-.1-38.88-.04-4.88.02-9.76.49-14.83.77-2.94,5.89-2.01,11.44-2.03,16.75-.18,46.4-.25,92.81-.34,139.21-.01,5.44,0,10.88,0,16.69-9.48,3.58-18.08,2.2-26.82,1.01-3.11-5.54-2.04-11.13-2.05-16.47-.1-36.92-.04-73.85-.06-110.77,0-10.98-.04-21.96-.23-32.93-.07-3.87-.65-7.73-1.07-12.47-5.03-.4-9.36-1-13.7-1.04-13.46-.12-26.92.04-40.38-.06-4.39-.03-9.03.93-13.24-2.44v-24.02c3.42-.66,6.22-1.66,9.03-1.67,48.85-.15,97.71-.21,146.56-.2,2.87,0,5.74.62,9.82,1.08Z"/>
  <path d="m1030.63,2061.47c.54,4.02,1.23,6.94,1.27,9.87.07,4.45-.31,8.91-.47,12.58-3.83,4.07-7.98,3.57-11.88,3.57-12.97,0-25.95-.32-38.92-.25-4.87.03-10.01-1.11-14.69,2.2-2.78,4.99-1.57,10.58-1.58,15.94-.03,45.95.11,91.91.14,137.86,0,5.42-.33,10.83-.53,16.74-8.86,3.49-17.01,2.01-25.01.41-3.98-5.79-2.71-11.97-2.75-17.81-.33-44.95-.45-89.91-.67-134.86-.03-5.42-.3-10.83-.49-17.04-3.94-.66-7.21-1.66-10.5-1.69-13.97-.13-27.95.09-41.92.05-4.38-.01-8.76-.44-13.43-.7-3.48-8.87-2.39-17.12-1.13-26.18,2.48-.53,4.79-1.46,7.1-1.47,49.41-.11,98.81-.12,148.22-.11,1.93,0,3.86.46,7.22.89Z"/>
  <path d="m999.48,2461.85h-12.98c-11.12-20.63-19.37-42.41-31.64-62.33-2.66,20.98-.16,41.74-2.46,62.38-5.07,2.97-9.75,2.68-15.66.38-1.74-10.5-.7-21.44-.94-32.29-.26-11.49-.28-22.99-.33-34.49-.05-10.95-.01-21.89-.01-33.34,6.05-3.58,12.43-1.82,19.34-1.63,1.67,2.96,3.55,5.82,4.96,8.89,7.95,17.23,15.66,34.58,23.75,51.74,2.28,4.84,4.2,10.13,8.35,13.46,4.55-.14,4.98-3.59,6.02-6.08,7.14-17.05,14.08-34.18,21.15-51.25,2.28-5.51,4.77-10.94,6.99-16.01q11.23-2.86,21.19-.22c.33,1.7,1.02,3.61,1.04,5.53.28,30.49.49,60.98.63,91.47,0,1.39-.79,2.78-1.35,4.59-4.74,1.84-9.38,2.32-15.11-.59-1.6-19.39-.51-39.23-2.42-61.17-2.66,2.86-4.26,3.92-4.95,5.41-8.42,18.09-16.71,36.25-25.57,55.55Z"/>
  <path d="m1193.05,984.46c0-12.97-.05-25.95.03-38.92.02-3.48.24-6.99.72-10.43.63-4.52,3.7-7.31,7.96-7.72,4.39-.42,9.13-.57,13.3.62,29.25,8.39,47.8,30.67,46.18,61.57-1.14,21.78-17.65,43.9-38.3,50.89-7.28,2.47-14.69,2.46-22.15,1.33-4.53-.69-7.1-3.67-7.69-7.98-.54-3.93-.53-7.95-.55-11.94-.06-12.47-.02-24.95-.02-37.42h.51Z"/>
  <path d="m742.68,986.01c0,14,.22,28-.07,42-.22,10.55-4.12,14.52-14.66,14.37-5.34-.08-11.03-1.07-15.92-3.14-20.88-8.88-34.45-24.23-36.24-47.37-1.9-24.57,8.52-43.82,29.54-56.6,6.25-3.8,13.62-6.45,20.82-7.83,10.93-2.1,16.06,2.38,16.38,13.59.42,14.99.1,30,.1,44.99h.05Z"/>
  <path d="m1269,2462.83c-6.31,2.45-12.23,1.5-19.18,1.15-15.28-24.13-32.8-47.22-51.46-73.08-3.18,9.15-2.29,15.09-2.49,20.86-.19,5.49-.1,10.99-.11,16.48-.02,5.99.03,11.99-.04,17.98-.07,5.43-.26,10.86-.39,16.18-5.14,3.63-10.1,1.93-15.55,2.09-.6-2.57-1.58-4.87-1.59-7.17-.15-30.46-.18-60.93-.18-91.39,0-1.42.57-2.84,1.05-5.05,6.24-1.78,12.49-1.03,19.16-.38,3.13,4.79,6.06,9.4,9.1,13.94,10.58,15.74,21.13,31.5,31.84,47.14,2.7,3.95,5.31,8.31,10.11,9.48,3.83-2.45,3.11-5.7,3.15-8.54.18-14.98.14-29.97.3-44.95.05-4.9.47-9.8.71-14.5,4.91-2.99,9.14-2.82,14.22-.92.52,1.96,1.65,4.27,1.67,6.59.34,29.96.53,59.92.71,89.89,0,.96-.45,1.91-1.02,4.19Z"/>
  <path d="m1660.5,2411.17c.45,38.09-28.56,55.35-55.9,54.5-11.14-.35-21.9-2.15-31.27-8.54-19.44-13.25-25.81-32.34-22.73-54.78,2.84-20.71,19-37.24,39.26-42.41,12.04-3.07,23.73-2.21,35.34,1.43,22.41,7.02,35.48,25.59,35.31,49.79Zm-18.18,1.61c-.37-3.21-.51-5.71-.97-8.15-.55-2.94-1.04-5.96-2.14-8.71-11.9-29.74-48.82-27.23-61.6-10.47-10.01,13.12-13.07,27.91-6.65,43.7,5.77,14.18,22.4,24.43,36.97,23.24,16.4-1.34,28.23-11.71,32.34-28.53.94-3.86,1.46-7.82,2.05-11.08Z"/>
  <path d="m188.57,2464.52c-2.47-14.76-2.75-91.14-.56-103.35,1.6-.36,3.46-1.15,5.32-1.15,12.94,0,25.91-.41,38.79.5,6.78.48,13.64,2.72,20.02,5.25,11.81,4.69,19.27,13.91,23.09,25.87,5.23,16.37,4.1,32.48-3.29,47.99-7.02,14.74-19.25,22.98-35.09,24.45-15.8,1.46-31.76,1.21-48.28.45Zm16.11-88.64c-1.5,13.05-.87,25-.43,36.86.46,12.22-2.24,24.79,2.87,37.23,8.73,1.14,17.16.86,25.57.11,10.86-.96,18.48-6.69,23.32-16.38,4.85-9.72,6.25-19.99,4.5-30.58-2.42-14.61-11.6-24.31-26.18-27.25-9.26-1.87-18.7-2.2-29.65.01Z"/>
  <path d="m755.84,2466.6c-7.76-1.57-15.85-2.22-23.22-4.88-37-13.38-46.22-61.31-17.19-87.93,17.64-16.17,45.21-20.42,67.01-10.58,14.29,6.45,22.71,17.57,25.88,32.57,1.32,6.27,1.6,12.87,1.46,19.31-.65,30.46-26.93,51.76-53.94,51.51Zm36.99-55.84c-.47-9.14-2.1-18.42-8.83-25.94-9.93-11.09-22.29-14.46-36.62-11.28-15.08,3.35-24.57,12.67-28.57,27.47-2.27,8.4-1.93,17.02.65,25.19,4.2,13.32,12.83,22.32,27.19,24.8,25.95,4.49,46.25-12.95,46.18-40.24Z"/>
  <path d="m1096.51,2374.86c-3.18,9.4-2.61,18.11-.77,27.18,8.63,4.66,17.76,2.16,26.52,2.67,8.39.49,16.8.38,25.6.54.73,2.69,1.7,4.54,1.65,6.36-.13,5.01-1.59,6.91-5.76,6.99-11.48.2-22.97.03-34.46.15-4.38.04-9-1.24-13.67,2.43-2.24,8.71-1.57,17.93.29,27.97,3.73.56,7.03,1.44,10.35,1.49,12.98.2,25.97.07,38.96.2,3.4.04,6.8.57,10.46.9v10.53c-11.76,2.77-62.54,3.15-76.91.61-.53-2.1-1.47-4.43-1.68-6.82-1.39-16.18-1.15-84.92.35-95.08,12.37-3.86,25.32-.95,38.04-1.05,12.34-.1,24.84-1.26,37.59,1.66v11.22c-3.06.52-5.88,1.39-8.7,1.41-11.99.09-23.97-.14-35.96-.11-3.9.01-7.79.47-11.91.74Z"/>
  <path d="m590.13,2360.56c-.3,5.31-.48,8.69-.67,12.08-1.86.66-3.23,1.55-4.61,1.57-12.47.18-24.94.21-37.42.27-4.94.02-9.89,0-15.02,0-4.51,9.88-3.06,19.04-1.61,29.22,17.39,3.25,34.9.24,52.2,2.24,3.98,3.59,3.99,7.49.51,12.77-16.84.24-34.15.5-51.83.75-3.75,9.87-2.26,19.11-1.04,29.24,3.32.64,6.59,1.76,9.88,1.83,11.97.26,23.95.13,35.93.25,4.92.05,9.83.38,15.47.61.36,4,.65,7.27.95,10.6-1.83.86-3.1,1.98-4.39,2-17.46.3-34.92.46-52.38.61-6.95.06-13.91,0-21.35,0-.92-2.98-2.2-5.23-2.22-7.5-.3-30.46-.45-60.93-.55-91.4,0-1.4.7-2.8,1.27-4.91,12.6-3.51,25.55-.86,38.32-1.14,12.36-.28,24.8-.64,38.57.88Z"/>
  <path d="m320.76,2449.65c20.44,1.98,40.86-.22,60.87,1.73.62,2.51,1.19,3.92,1.26,5.35.09,1.96-.19,3.94-.3,5.71-1.09.74-1.9,1.78-2.7,1.77-23.92-.09-47.83-.26-71.75-.53-1.35-.02-2.7-1.02-3.92-1.52-2.09-11.79-2.89-56.43-1.6-91.27.11-2.87.74-5.72,1.17-8.85,2.58-.54,4.46-1.27,6.35-1.29,21.44-.21,42.88-.34,64.32-.38,1.38,0,2.77.85,4.83,1.53v12.2c-19.23.25-38.02.5-56.42.74-4.17,10.48-4.4,15.21-1.51,28.8,16.75,3.66,34.33-.65,51.82,2.62v12.53c-17.52,1.72-34.46.03-51.72,1.31-4.85,9.77-3.46,19.23-.72,29.55Z"/>
  <path d="m1516.38,2396.34c-1.25-2.73-2.21-5.56-3.73-8.05-12.95-21.19-42.65-21.87-56.39-1.13-8.94,13.5-9.91,28.47-4.02,43.06,10.96,27.13,43.5,26.1,57.69,8.5,2.8-3.48,5.04-7.41,7.59-11.21,5.33-1.8,10.51-2.97,15.79-.21-3.56,20.06-16.99,33.93-37.63,37.58-21.1,3.73-40.27-.88-53.54-18.72-14.54-19.54-14.55-41-3.48-62.22,10.15-19.45,29.28-29.24,51.22-26.25,21.77,2.97,35.91,15.6,43.63,36.51-5.95,2.74-11.2,3.19-17.12,2.14Z"/>
  <path d="m849.84,2430.77v30.56c-5.4,4.14-10.34,2.62-15.68,2.72-.75-2.14-1.91-3.93-1.92-5.72-.08-29.91-.04-59.82.09-89.73,0-1.9.93-3.79,1.53-6.07,2.47-.61,4.82-1.62,7.19-1.69,12.45-.39,24.91-.88,37.35-.6,5.36.12,10.95,1.28,15.97,3.21,11.68,4.49,18.23,13.32,19.59,25.92,2.27,20.97-8.71,35.78-29.6,39.13-6.36,1.02-12.9.96-19.36,1.38-4.39.28-8.79.52-15.16.9Zm1.26-17.08c10.22,1.97,20.68,1.4,30.98-.21,9.19-1.44,15.64-9,16.12-17.26.49-8.46-6.01-18.71-14.46-20.58-11.12-2.46-22.46-2.57-33.28.16-3.04,14.95-2.79,27.11.65,37.9Z"/>
  <path d="m444.71,2441.12c7.62-12.48,11.07-26.46,15.93-39.77,4.77-13.06,8.55-26.49,12.95-40.32h17.97c1.53,4.9-.73,8.86-2.29,12.87-7.61,19.51-15.32,38.98-22.97,58.47-3.99,10.16-7.94,20.34-12.08,30.94h-20.47c-5.75-8.95-35.18-89.39-37.26-101.58,4.36-3.08,9.21-2.18,15.03-1.31,1.38,3.13,3.16,6.59,4.47,10.22,7.26,20.17,14.33,40.41,21.65,60.55,1.28,3.53,1.85,7.84,7.07,9.92Z"/>
  <path d="m1339.25,2464.02h-15.8c-.27-5.57-.67-10.45-.72-15.34-.19-19.98-.17-39.97-.47-59.95-.07-4.85,1-10.02-2.73-15.51-9.83-3.06-21.03.13-32.68-2.35-.15-2.89-.3-5.65-.47-9.04,2.56-.77,4.81-2,7.09-2.04,25.45-.5,50.9-.83,76.36-1.12,1.41-.02,2.83.75,5.08,1.39.27,3.15.56,6.41.84,9.73-1.85.84-3.12,1.85-4.44,1.93-5.97.35-11.97.35-17.94.62-11.49.51-13.1,1.91-13.29,13.09-.23,13.49-.05,26.98,0,40.47.03,9.99.17,19.98.13,29.98,0,2.4-.54,4.79-.95,8.14Z"/>
  <path d="m635.25,2449.35c18.73,2.4,35.66.04,52.57,1.38.73,1.41,1.79,2.65,1.97,3.99.31,2.38.09,4.84.09,7.9-11.91,3.57-23.83,1.46-35.53,1.85-11.39.38-22.81.08-34.73.08-.9-3.11-2.11-5.37-2.12-7.64-.17-30.41-.19-60.81-.16-91.22,0-1.88.73-3.77,1.04-5.24,4.68-3.45,8.99-2.13,12.7-1.62,4.09,3.66,3.16,7.9,3.2,11.74.19,20.44.17,40.88.31,61.32.04,5.4.4,10.79.66,17.46Z"/>
  <path d="m891.28,875.71c.39-.82.78-2.35,1.17-2.35,3.92,0,8.14-.64,11.69.6,8.69,3.05,16.06,2.86,23.65-3.41,6.42-5.31,12.63-3.36,18.43,3.93-11.67,4.06-43.7,4.77-54.94,1.22Z"/>
  <path d="m1701.06,2455.86c.2,5.3-4.39,9.92-10.29,10.36-5.76.43-10.18-3.83-10.25-9.89-.07-5.94,3.85-10.85,9.17-11.47,5.57-.65,11.14,4.73,11.38,11.01Z"/>
  <path d="m989.14,832.15c2.13,0,3.74-.49,4.76.08,5.93,3.3,9.72,8.63,11.04,15.06,1.77,8.67,2.59,17.56-.38,26.25-.2.59-1.64,1.16-2.38,1.03-.73-.13-1.84-1.15-1.84-1.79-.02-1.92.27-3.89.68-5.78,2.63-12.03-.06-22.43-9.22-30.95-.94-.88-1.5-2.17-2.65-3.9Z"/>
  <path d="m1027.16,871.82c-.86,1.01-1.56,2.22-1.88,2.12-1.13-.33-2.13-1.1-3.18-1.71.52-.63,1.11-1.82,1.54-1.77,1.16.14,2.25.82,3.52,1.35Z"/>
</svg>